<?xml version="1.0" encoding="utf-8"?>
<!-- Generator: Adobe Illustrator 21.0.0, SVG Export Plug-In . SVG Version: 6.00 Build 0)  -->
<svg version="1.1" xmlns="http://www.w3.org/2000/svg" xmlns:xlink="http://www.w3.org/1999/xlink" x="0px" y="0px"
	 viewBox="0 0 63.1 63.1" style="enable-background:new 0 0 63.1 63.1;" xml:space="preserve">
<style type="text/css">
	.st0{fill:none;stroke:#000000;stroke-miterlimit:10;}
	.st1{display:none;}
</style>
<g id="Capa_1">
	<g>
		<path d="M32.5,30L38,25l-4.9,5.6c0.1,0.3,0.2,0.6,0.2,0.9c0,1-0.8,1.8-1.8,1.8c-1,0-1.8-0.8-1.8-1.8c0-1,0.8-1.8,1.8-1.8
			C31.9,29.7,32.2,29.8,32.5,30z M43.5,31.5c0,6.6-5.4,12-12,12s-12-5.4-12-12s5.4-12,12-12S43.5,24.9,43.5,31.5z M40.9,35.6
			L39.4,35l0.2-0.4l1.5,0.6c0.4-1,0.6-2.1,0.7-3.2h-1.6v-0.9h1.6c-0.1-1.2-0.3-2.3-0.7-3.3l-1.5,0.6L39.4,28l1.5-0.6
			c-1-2.3-2.9-4.2-5.2-5.2L35,23.7l-0.4-0.2l0.6-1.5c-1-0.4-2.1-0.6-3.2-0.7v1.6h-0.9v-1.6c-1.2,0.1-2.3,0.3-3.3,0.7l0.6,1.5
			L28,23.7l-0.6-1.5c-1,0.4-1.9,1.1-2.7,1.8l1.1,1.1l-0.7,0.7L24,24.7c-0.8,0.8-1.4,1.8-1.8,2.8l1.5,0.6l-0.2,0.4L22,27.9
			c-0.4,1-0.6,2.1-0.7,3.2h1.6V32h-1.6c0.1,1.2,0.3,2.3,0.7,3.3l1.5-0.6l0.2,0.4l-1.5,0.6c0.4,1,1.1,1.9,1.8,2.7l1.1-1.1l0.7,0.7
			l-1.1,1.1c1.8,1.7,4.2,2.7,6.9,2.7c2.6,0,5.1-1,6.9-2.7l-1.1-1.1l0.7-0.7l1.1,1.1C39.8,37.6,40.5,36.6,40.9,35.6z M28.1,37.9h6.8
			v-1.3h-6.8V37.9z"/>
	</g>
	
		<rect x="9.8" y="9.9" transform="matrix(0.7071 -0.7071 0.7071 0.7071 -13.0945 31.5854)" class="st0" width="43.5" height="43.5"/>
</g>
<g id="bg" class="st1">
	
		<image style="display:inline;overflow:visible;" width="101" height="101" xlink:href="иконка скорость.png"  transform="matrix(0.6244 0 0 0.6244 0 0)">
	</image>
</g>
</svg>
