<svg version="1.1" id="reacts" xmlns="http://www.w3.org/2000/svg" xmlns:xlink="http://www.w3.org/1999/xlink" x="0px" y="0px"
	 viewBox="0 0 41 41" style="enable-background:new 0 0 41 41;" xml:space="preserve">
<path d="M10,11H1c-0.6,0-1-0.4-1-1V1c0-0.6,0.4-1,1-1h9c0.6,0,1,0.4,1,1v9C11,10.6,10.6,11,10,11z"/>
<path d="M40,11h-9c-0.6,0-1-0.4-1-1V1c0-0.6,0.4-1,1-1h9c0.6,0,1,0.4,1,1v9C41,10.6,40.6,11,40,11z"/>
<path d="M25,11h-9c-0.6,0-1-0.4-1-1V1c0-0.6,0.4-1,1-1h9c0.6,0,1,0.4,1,1v9C26,10.6,25.6,11,25,11z"/>
<path d="M10,41H1c-0.6,0-1-0.4-1-1v-9c0-0.6,0.4-1,1-1h9c0.6,0,1,0.4,1,1v9C11,40.6,10.6,41,10,41z"/>
<path d="M10,26H1c-0.6,0-1-0.4-1-1v-9c0-0.6,0.4-1,1-1h9c0.6,0,1,0.4,1,1v9C11,25.6,10.6,26,10,26z"/>
<path d="M25,26h-9c-0.6,0-1-0.4-1-1v-9c0-0.6,0.4-1,1-1h9c0.6,0,1,0.4,1,1v9C26,25.6,25.6,26,25,26z"/>
<path d="M25,41h-9c-0.6,0-1-0.4-1-1v-9c0-0.6,0.4-1,1-1h9c0.6,0,1,0.4,1,1v9C26,40.6,25.6,41,25,41z"/>
<path d="M40,26h-9c-0.6,0-1-0.4-1-1v-9c0-0.6,0.4-1,1-1h9c0.6,0,1,0.4,1,1v9C41,25.6,40.6,26,40,26z"/>
<path d="M40,41h-9c-0.6,0-1-0.4-1-1v-9c0-0.6,0.4-1,1-1h9c0.6,0,1,0.4,1,1v9C41,40.6,40.6,41,40,41z"/>
</svg>
