<?xml version="1.0" encoding="utf-8"?>
<!-- Generator: Adobe Illustrator 21.0.0, SVG Export Plug-In . SVG Version: 6.00 Build 0)  -->
<svg version="1.1" xmlns="http://www.w3.org/2000/svg" xmlns:xlink="http://www.w3.org/1999/xlink" x="0px" y="0px"
	 viewBox="0 0 56.4 56.4" style="enable-background:new 0 0 56.4 56.4;" xml:space="preserve">
<style type="text/css">
	.st0{fill:none;stroke:#000000;stroke-miterlimit:10;}
	.st1{display:none;}
</style>
<g id="Capa_1">
	<g>
		<path d="M36.3,29.3c-0.9,0-1.7,0.6-2.2,1.3c-0.5-0.7-1.3-1.3-2.2-1.3c-1.5,0-2.7,1.2-2.8,2.7c0,0.1-0.1,0.5,0.1,1.1
			c0.2,0.9,0.7,1.6,1.4,2.3l3.2,2.8c0.1,0.1,0.2,0.1,0.3,0.1c0.1,0,0.2,0,0.3-0.1l3.2-2.8c0.7-0.6,1.2-1.4,1.4-2.2
			c0.1-0.6,0.1-1,0.1-1.1C39,30.5,37.8,29.3,36.3,29.3z M38.3,32.9c-0.2,0.7-0.6,1.3-1.2,1.8l-3,2.6l-3-2.6c-0.6-0.5-1-1.1-1.2-1.8
			c-0.1-0.5-0.1-0.7-0.1-0.7l0,0c0.1-1,0.8-2.1,2.1-2.1c0.9,0,1.5,0.7,1.9,1.4l0.4,0.8l0.4-0.8c0.3-0.7,1-1.4,1.9-1.4
			c1.2,0,2,1,2.1,2.1C38.4,32.2,38.4,32.4,38.3,32.9z"/>
		<polygon points="17.6,29.4 27.4,39.2 29.8,36.8 20,27 		"/>
		<path d="M35.3,17.2h-5.5l-9.3,9.2l7.7,7.7c-0.1-0.2-0.2-0.5-0.3-0.8c-0.2-0.7-0.1-1.2-0.1-1.5c0.2-2.1,1.9-3.8,4-3.8
			c0.8,0,1.6,0.3,2.2,0.8c0.7-0.5,1.4-0.8,2.2-0.8c0.6,0,1.2,0.2,1.8,0.4l1.5-1.5v-5.5L35.3,17.2z M34.2,23.8
			c-0.8,0-1.5-0.7-1.5-1.5s0.7-1.5,1.5-1.5s1.5,0.7,1.5,1.5C35.7,23.1,35,23.8,34.2,23.8z"/>
	</g>
	
		<rect x="8.6" y="9.1" transform="matrix(0.7071 -0.7071 0.7071 0.7071 -11.8285 27.5614)" class="st0" width="37.5" height="37.8"/>
</g>
<g id="Шар_2" class="st1">
	
		<image style="display:inline;overflow:visible;" width="101" height="101" xlink:href="иконка цена.png"  transform="matrix(0.5586 0 0 0.5586 0 0)">
	</image>
</g>
</svg>
