<?xml version="1.0" encoding="utf-8"?>
<!-- Generator: Adobe Illustrator 21.0.0, SVG Export Plug-In . SVG Version: 6.00 Build 0)  -->
<svg version="1.1" xmlns="http://www.w3.org/2000/svg" xmlns:xlink="http://www.w3.org/1999/xlink" x="0px" y="0px"
	 viewBox="0 0 63.9 63.9" style="enable-background:new 0 0 63.9 63.9;" xml:space="preserve">
<style type="text/css">
	.st0{fill:none;stroke:#000000;stroke-miterlimit:10;}
	.st1{display:none;}
</style>
<g id="Capa_1">
	<g>
		<path d="M23.8,31.2c0.2,0.1,0.4,0.3,0.5,0.4c0.1,0.2,0.2,0.4,0.1,0.6c-0.1,0.3-0.2,0.5-0.4,0.6c-0.2,0.1-0.4,0.1-0.6,0.1
			L23.8,31.2z M23.7,29.8l0.3-1.5c-0.2,0-0.3,0-0.5,0.1c-0.2,0.1-0.3,0.3-0.4,0.5c0,0.2,0,0.4,0.2,0.6
			C23.4,29.6,23.5,29.7,23.7,29.8z M25.3,23.4l2.8,3l-2.2,10.3l-6.5-1.5l2.2-10.3L25.3,23.4z M24.6,27.4l0.1-0.6l-0.4-0.1l-0.1,0.6
			c-0.5-0.1-0.9,0-1.3,0.2c-0.4,0.3-0.7,0.7-0.8,1.2c-0.1,0.5,0,0.9,0.2,1.2c0.2,0.3,0.6,0.6,1.2,1l-0.4,1.9
			c-0.2-0.1-0.4-0.2-0.5-0.4c-0.1-0.2-0.1-0.5,0-0.9l-1.2-0.3l0,0.2c-0.1,0.6-0.1,1.1,0.2,1.5c0.3,0.4,0.7,0.7,1.3,0.9l-0.2,0.9
			l0.4,0.1l0.2-0.9c0.6,0.1,1.1,0,1.5-0.2c0.5-0.3,0.7-0.7,0.9-1.3c0.1-0.5,0-0.9-0.2-1.3c-0.2-0.4-0.6-0.7-1.3-1.1L24,30l0.3-1.7
			c0.2,0.1,0.4,0.2,0.5,0.3c0.1,0.2,0.1,0.4,0.1,0.7l1.1,0.2c0.1-0.6,0-1.1-0.2-1.5C25.5,27.8,25.1,27.6,24.6,27.4z M32.2,29.2h-0.4
			l1.5-4.2h0.5h0.5l1.5,4.2h-0.5h-0.5l-0.3-0.9h-1.6l-0.3,0.9C32.7,29.2,32.2,29.2,32.2,29.2z M33.2,27.6h1.1l-0.5-1.7v0h0l0,0
			L33.2,27.6z M41.9,30.5h-1.5v0.9h1.5V30.5z M39,30.5h-1.5v0.9H39V30.5z M34.6,31.4H36v-0.9h-1.5V31.4z M33.1,30.5h-1.5v0.9h1.5
			V30.5z M41.9,33.2h-1.5v0.9h1.5V33.2z M39,33.2h-1.5v0.9H39V33.2z M41.9,25.3h-1.5v0.9h1.5V25.3z M39,25.3h-1.5v0.9H39V25.3z
			 M41.9,28.1h-1.5v0.9h1.5V28.1z M39,28.1h-1.5v0.9H39V28.1z M34.6,34.2H36v-0.9h-1.5V34.2z M33.1,33.2h-1.5v0.9h1.5V33.2z
			 M41.9,36h-1.5V37h1.5V36z M39,36h-1.5V37H39V36z M34.6,37H36V36h-1.5V37z M33.1,36h-1.5V37h1.5V36z M41.9,38.8h-1.5v0.9h1.5V38.8
			z M39,38.8h-1.5v0.9H39V38.8z M34.6,39.7H36v-0.9h-1.5V39.7z M33.1,38.8h-1.5v0.9h1.5V38.8z M44.4,20.8v24H28.6v-24H44.4z
			 M43.1,23.2H30v18.3h13.1C43.1,41.5,43.1,23.2,43.1,23.2z M37.3,44.1v-0.7v-0.9h-1.5v0.9v0.7H37.3z"/>
	</g>
	<rect x="9.9" y="10" transform="matrix(0.7071 -0.7071 0.7071 0.7071 -13.268 31.9754)" class="st0" width="44.1" height="44.1"/>
</g>
<g id="bg" class="st1">
	
		<image style="display:inline;overflow:visible;" width="101" height="101" xlink:href="иконка ассортимент.png"  transform="matrix(0.6323 0 0 0.6323 0 4.985332e-04)">
	</image>
</g>
</svg>
