<svg xmlns="http://www.w3.org/2000/svg" viewBox="4500.667 300.556 12.222 13.968">
  <defs>
    <style>
      .cls-1 {
        fill: #ff5722;
      }
    </style>
  </defs>
  <g id="Delete_icon" data-name="Delete icon" transform="translate(4500.667 300.556)">
    <path id="Path_6" data-name="Path 6" class="cls-1" d="M15.026,2.976a1.305,1.305,0,0,0-1.3-1.229h-1.31V1.31h0A1.31,1.31,0,0,0,11.106,0H6.741a1.309,1.309,0,0,0-1.31,1.31h0v.437H4.122a1.3,1.3,0,0,0-1.3,1.229H2.813v.953a.873.873,0,0,0,.873.873h0v7.421a1.746,1.746,0,0,0,1.746,1.746h6.984a1.746,1.746,0,0,0,1.746-1.746V4.8h0a.873.873,0,0,0,.873-.873V2.976ZM6.3,1.31A.436.436,0,0,1,6.741.873h4.365a.436.436,0,0,1,.437.437v.437H6.3Zm6.984,10.913a.874.874,0,0,1-.873.873H5.432a.874.874,0,0,1-.873-.873V4.8h8.73Zm.873-8.731v.437H3.686V3.056a.436.436,0,0,1,.437-.437h9.6a.436.436,0,0,1,.437.437Z" transform="translate(-2.813)"/>
    <path id="Path_7" data-name="Path 7" class="cls-1" d="M11.687,24.836h.873A.436.436,0,0,0,13,24.4V18.725a.436.436,0,0,0-.437-.437h-.873a.436.436,0,0,0-.437.437V24.4A.436.436,0,0,0,11.687,24.836Zm0-6.112h.873V24.4h-.873Z" transform="translate(-8.631 -12.611)"/>
    <path id="Path_8" data-name="Path 8" class="cls-1" d="M20.124,24.836H21a.436.436,0,0,0,.437-.437V18.725A.436.436,0,0,0,21,18.288h-.873a.436.436,0,0,0-.437.437V24.4A.436.436,0,0,0,20.124,24.836Zm0-6.112H21V24.4h-.873Z" transform="translate(-14.449 -12.611)"/>
    <path id="Path_9" data-name="Path 9" class="cls-1" d="M28.562,24.836h.873a.436.436,0,0,0,.437-.437V18.725a.436.436,0,0,0-.437-.437h-.873a.436.436,0,0,0-.437.437V24.4A.436.436,0,0,0,28.562,24.836Zm0-6.112h.873V24.4h-.873Z" transform="translate(-20.268 -12.611)"/>
  </g>
</svg>
