<svg xmlns="http://www.w3.org/2000/svg">
    <symbol id="location" viewBox="1301 9 14.667 22">
        <path d="M12.333,0A7.334,7.334,0,0,0,5.88,10.818l6.052,10.945a.458.458,0,0,0,.8,0l6.054-10.949A7.335,7.335,0,0,0,12.333,0Zm0,11A3.667,3.667,0,1,1,16,7.333,3.671,3.671,0,0,1,12.333,11Z" transform="translate(1296 9)"/>
    </symbol>
    <symbol id="phone" viewBox="785 9 21.999 22" transform="translate(51 -154)">
        <path d="M16.726,14.937a1.541,1.541,0,0,0-2.33,0c-.545.54-1.09,1.08-1.625,1.63a.321.321,0,0,1-.449.082c-.353-.192-.728-.348-1.067-.559a16.9,16.9,0,0,1-4.074-3.708,9.653,9.653,0,0,1-1.46-2.339.335.335,0,0,1,.082-.43c.545-.526,1.076-1.067,1.611-1.607a1.547,1.547,0,0,0,0-2.385c-.426-.43-.852-.852-1.277-1.282s-.874-.884-1.318-1.318a1.551,1.551,0,0,0-2.33,0C1.934,3.566,1.408,4.12.849,4.651a2.653,2.653,0,0,0-.833,1.79A7.584,7.584,0,0,0,.6,9.7a19.835,19.835,0,0,0,3.52,5.864,21.786,21.786,0,0,0,7.215,5.645,10.435,10.435,0,0,0,4,1.163,2.929,2.929,0,0,0,2.513-.957c.467-.522.993-1,1.488-1.5a1.557,1.557,0,0,0,.009-2.371Q18.04,16.24,16.726,14.937Z" transform="translate(734 162.616)"/>
        <path d="M17.831,11.7l1.689-.288a7.583,7.583,0,0,0-6.414-6.221l-.238,1.7A5.86,5.86,0,0,1,17.831,11.7Z" transform="translate(732.02 162.201)"/>
        <path d="M20.514,3.562A12.456,12.456,0,0,0,13.372,0l-.238,1.7a10.869,10.869,0,0,1,9.2,8.913l1.689-.288A12.547,12.547,0,0,0,20.514,3.562Z" transform="translate(731.979 163)"/>
    </symbol>
</svg>
