<svg xmlns="http://www.w3.org/2000/svg" viewBox="5931 3100 164 164">
  <defs>
    <style>
      .cls-1 {
        fill: #ff0;
      }
    </style>
  </defs>
  <g id="Store_icon" data-name="Store icon" transform="translate(4635 2783)">
    <path id="Path_4" data-name="Path 4" class="cls-1" d="M49.2,131.2a16.4,16.4,0,1,0,16.4,16.4A16.448,16.448,0,0,0,49.2,131.2ZM0,0V16.4H16.4L45.92,78.72,34.44,98.4a29.134,29.134,0,0,0-1.64,8.2A16.448,16.448,0,0,0,49.2,123h98.4V106.6H52.48a1.764,1.764,0,0,1-1.64-1.64v-.82L58.22,90.2H118.9c6.56,0,11.48-3.28,13.94-8.2l29.52-53.3A4.514,4.514,0,0,0,164,24.6c0-4.92-3.28-8.2-8.2-8.2H34.44L27.06,0ZM131.2,131.2a16.4,16.4,0,1,0,16.4,16.4A16.448,16.448,0,0,0,131.2,131.2Z" transform="translate(1296 317)"/>
  </g>
</svg>
