<svg xmlns="http://www.w3.org/2000/svg" viewBox="4321 759 20.167 22">
  <defs>
    <style>
      .cls-1 {
        fill: #333;
      }
    </style>
  </defs>
  <g id="Basket_add_icon" data-name="Basket add icon" transform="translate(2704.375 429)">
    <path id="Path_10" data-name="Path 10" class="cls-1" d="M23.815,12.083h-.888a.458.458,0,0,0-.454.523,5.959,5.959,0,1,1-11.78,0,.458.458,0,0,0-.454-.523H9.176L8.8,10.893a.917.917,0,0,0-.875-.643H5.583a.458.458,0,0,0-.458.458v.917a.458.458,0,0,0,.458.458H7.255l2.9,9.26L8.792,22.7a1.833,1.833,0,0,0,1.3,3.13H23a.458.458,0,0,0,.458-.458v-.917A.458.458,0,0,0,23,24H10.088l1.833-1.833h8.373a1.842,1.842,0,0,0,1.659-1.053l3.2-6.8a1.488,1.488,0,0,0,.14-.628v-.13A1.478,1.478,0,0,0,23.815,12.083Z" transform="translate(1611.5 321.583)"/>
    <path id="Path_11" data-name="Path 11" class="cls-1" d="M46.042,10.083A5.042,5.042,0,1,0,41,5.042,5.047,5.047,0,0,0,46.042,10.083Zm-1.833-5.5h1.375V3.208a.458.458,0,1,1,.917,0V4.583h1.375a.458.458,0,0,1,0,.917H46.5V6.875a.458.458,0,0,1-.917,0V5.5H44.208a.458.458,0,0,1,0-.917Z" transform="translate(1582.042 330)"/>
    <circle id="Ellipse_4" data-name="Ellipse 4" class="cls-1" cx="1.833" cy="1.833" r="1.833" transform="translate(1620.292 348.333)"/>
    <circle id="Ellipse_5" data-name="Ellipse 5" class="cls-1" cx="1.833" cy="1.833" r="1.833" transform="translate(1631.292 348.333)"/>
  </g>
</svg>
