<svg xmlns="http://www.w3.org/2000/svg" viewBox="7202 1263 25 25">
  <defs>
    <style>
      .cls-1 {
        fill: #fff;
      }
    </style>
  </defs>
  <g id="Calendar_icon" data-name="Calendar icon" transform="translate(6753 610)">
    <path id="Path_62" data-name="Path 62" class="cls-1" d="M7.812,12.5H4.688V9.375H7.812Zm6.25-3.125H10.938V12.5h3.125Zm6.25,0H17.188V12.5h3.125Zm-12.5,4.687H4.688v3.125H7.812Zm6.25,0H10.938v3.125h3.125Zm6.25,0H17.188v3.125h3.125ZM7.812,18.75H4.688v3.125H7.812Zm6.25,0H10.938v3.125h3.125ZM6.25,4.688A1.562,1.562,0,0,0,7.812,3.125V1.563a1.562,1.562,0,1,0-3.125,0V3.125A1.562,1.562,0,0,0,6.25,4.688ZM25,3.125V25H0V3.125H3.906a2.344,2.344,0,0,0,4.688,0h7.813a2.344,2.344,0,0,0,4.688,0ZM23.438,7.812H1.563V23.438H23.438ZM18.75,4.688a1.562,1.562,0,0,0,1.563-1.562V1.563a1.563,1.563,0,0,0-3.125,0V3.125A1.562,1.562,0,0,0,18.75,4.688Z" transform="translate(449 653)"/>
  </g>
</svg>
