<?xml version="1.0" encoding="utf-8"?>
<!-- Generator: Adobe Illustrator 21.1.0, SVG Export Plug-In . SVG Version: 6.00 Build 0)  -->
<svg version="1.1" id="Слой_1" xmlns="http://www.w3.org/2000/svg" xmlns:xlink="http://www.w3.org/1999/xlink" x="0px" y="0px"
	 viewBox="0 0 170 66" style="enable-background:new 0 0 170 66;" xml:space="preserve">
<style type="text/css">
	.st0{enable-background:new    ;}
	.st1{fill:#FFFFFF;}
	.st2{fill:#FFEE00;}
</style>
<g class="st0">
	<path class="st1" d="M24.2,27c0,3.3-0.6,6.1-1.7,8.6s-2.8,4.3-5,5.5S12.8,43,9.8,43H1.9l5.4-25.7h7c3.2,0,5.6,0.8,7.3,2.5
		S24.2,23.9,24.2,27z M10.1,38.5c1.7,0,3.2-0.4,4.5-1.3s2.3-2.2,3-3.9s1.1-3.7,1.1-5.9c0-1.8-0.4-3.2-1.3-4.1s-2.1-1.4-3.7-1.4h-2
		L8.2,38.5H10.1z"/>
	<path class="st1" d="M32.5,43.4c-1.7,0-3.1-0.6-4.1-1.9s-1.5-3-1.5-5.2c0-2.3,0.4-4.5,1.3-6.6s2-3.7,3.3-4.9S34.4,23,36,23
		c1.1,0,2.1,0.2,2.9,0.7s1.5,1.2,1.9,2.1H41l1-2.5h4.1L41.9,43h-4l0.2-2.5h-0.1C36.5,42.4,34.6,43.4,32.5,43.4z M34.5,39.1
		c0.8,0,1.6-0.4,2.3-1.2s1.4-1.8,1.8-3.2s0.7-2.9,0.7-4.6c0-0.8-0.2-1.5-0.7-2.1s-1-0.8-1.8-0.8c-0.8,0-1.6,0.4-2.3,1.3
		s-1.3,2-1.7,3.3s-0.6,2.8-0.6,4.1c0,1,0.2,1.8,0.6,2.3S33.8,39.1,34.5,39.1z"/>
	<path class="st1" d="M63.9,43h-5.3L61,31.5c0.2-0.8,0.3-1.5,0.3-2.1c0-1.4-0.6-2.2-1.9-2.2c-1.1,0-2.1,0.7-2.9,2s-1.6,3.2-2.1,5.6
		L52.7,43h-5.3l4.2-19.7h4L55.2,27h0.1c1.7-2.7,3.8-4,6.2-4c1.6,0,2.9,0.5,3.8,1.5s1.3,2.4,1.3,4.2c0,0.9-0.1,1.9-0.4,3.2L63.9,43z"
		/>
</g>
<g class="st0">
	<path class="st2" d="M69.4,43l5.4-25.7h5.4l-4.5,21.2h9L83.8,43H69.4z"/>
	<path class="st2" d="M96.5,43.4c-2.5,0-4.4-0.7-5.7-2s-2-3.2-2-5.6c0-2.4,0.5-4.6,1.5-6.6s2.3-3.5,3.9-4.6s3.5-1.6,5.6-1.6
		c2.1,0,3.7,0.5,4.9,1.4s1.7,2.3,1.7,3.9c0,2.2-1,3.9-2.9,5.1s-4.8,1.8-8.4,1.8h-0.9l0,0.4v0.4c0,1.1,0.3,1.9,0.9,2.5
		s1.5,0.9,2.6,0.9c1,0,1.9-0.1,2.8-0.3s1.8-0.6,3-1.2v4C101.3,42.8,99,43.4,96.5,43.4z M99.3,26.8c-1,0-2,0.5-2.9,1.4
		s-1.5,2.1-1.8,3.4h0.8c1.8,0,3.2-0.3,4.2-0.9s1.5-1.3,1.5-2.3C101.2,27.3,100.6,26.8,99.3,26.8z"/>
	<path class="st2" d="M122,23c0.7,0,1.3,0.1,1.7,0.2l-1.2,5.1c-0.5-0.2-1.1-0.3-1.8-0.3c-1.4,0-2.6,0.5-3.6,1.6s-1.8,2.6-2.2,4.6
		l-1.9,8.8h-5.3l4.2-19.7h4l-0.4,3.6h0.1C117.5,24.3,119.6,23,122,23z"/>
</g>
<g>
	<path class="st2" d="M36.1,2.9C37,2.8,38,2.6,38.9,2.5l2.8-0.2c1.9-0.1,3.8-0.3,5.6-0.4c3.8-0.2,7.5-0.4,11.3-0.5s7.5-0.2,11.3-0.2
		c3.8-0.1,7.5-0.1,11.3,0c7.5,0.2,15.1,0.8,22.6,1c7.5,0.2,15.1,0,22.7,0.8c3.8,0.5,7.6,1.2,11.3,2.8c1.8,0.8,3.6,1.9,5.1,3.2
		c1.6,1.3,2.9,2.9,4,4.6c0.5,0.9,1,1.8,1.4,2.7c0.2,0.5,0.4,0.9,0.6,1.4l0.5,1.3c0.7,1.6,1.6,3.2,2.5,4.7s2,3,3.1,4.4
		c0.6,0.7,1.1,1.4,1.7,1.9l2,2c1.4,1.3,2.7,2.7,3.9,4.2c1.3,1.5,2.5,3,3.6,4.6c1.1,1.7,2.1,3.6,2.6,5.7c0.5,2.1,0.4,4.3,0,6.3
		l-1.1,5.6c-0.2,1-0.4,1.9-0.8,2.9c-0.4,1-0.9,2-1.8,2.8c-0.9,0.8-2,1.2-3,1.4c-1,0.2-2.1,0.1-3,0c-1.9-0.1-3.8-0.3-5.6-0.5
		c-0.1,0-0.2-0.1-0.2-0.2s0.1-0.2,0.2-0.2c1.9-0.2,3.8-0.3,5.6-0.5c1.9-0.1,3.6-0.4,4.6-1.6c0.9-1.1,1.2-2.8,1.4-4.6l0.3-2.8
		l0.3-2.8c0.2-1.8,0.1-3.4-0.4-4.9c-0.4-1.5-1.3-3-2.3-4.4c-2-2.8-4.7-5.5-7.3-8.1l-2-2c-0.7-0.8-1.4-1.5-2-2.3
		c-1.2-1.6-2.2-3.3-3.2-5s-1.8-3.4-2.6-5.4l-0.5-1.4c-0.1-0.4-0.3-0.8-0.4-1.2c-0.3-0.8-0.7-1.6-1.1-2.3c-1.7-3-4.3-5.4-7.4-7.1
		c-3.1-1.7-6.7-2.8-10.3-3.5c-3.6-0.7-7.4-1.1-11.1-1.2c-1.9-0.1-3.7-0.1-5.6-0.1s-3.8,0-5.6,0.1c-7.5,0.2-15.1,0.8-22.6,1
		c-15,0.2-30.1-0.2-45.1-1.4l0,0C36.1,3.1,36,3,36.1,2.9C35.9,3,36,2.9,36.1,2.9z"/>
</g>
<g>
	<path class="st1" d="M127,20.4c-0.2-1.4-0.3-2.7-0.5-4.1l-0.1-1l0.9,0.6c2.9,2,5.2,4.6,7.2,7.4c1,1.4,1.9,2.9,2.7,4.4l1.1,2.3
		l1,2.4l0.8,2.5l0.7,2.5c0.3,1.1,0.1,2.5-0.6,3.5c-0.7,1-1.9,1.7-3.1,1.7c-0.3,0-0.5,0-0.7,0h-0.6l-1.3-0.1c-0.8,0-1.7-0.1-2.5-0.2
		c-1.7-0.1-3.4-0.3-5-0.5l-0.5-0.1l0.1-0.4c0.1-0.9,0.3-1.7,0.5-2.6c0.2,0.9,0.3,1.7,0.5,2.6L127,41c1.7-0.2,3.4-0.4,5-0.5
		c0.8-0.1,1.7-0.1,2.5-0.2l1.3-0.1h0.6c0.2,0,0.5,0,0.5,0c0.9-0.1,1.5-1.1,1.2-2l-0.7-2.3l-0.8-2.3l-0.9-2.3l-1-2.2
		c-0.7-1.5-1.4-2.9-2.3-4.3c-1.6-2.8-3.5-5.6-5.7-8l0.8-0.4C127.4,17.7,127.2,19,127,20.4z"/>
</g>
<g>
	<g>
		<path class="st2" d="M50.6,65.1c-0.7-4,0.8-8.4,3.9-11.2c1.6-1.4,3.5-2.3,5.3-3c1.9-0.7,3.8-1.2,5.9-1.4c2-0.2,4.2,0.1,6.1,0.8
			c2,0.7,3.8,1.9,5.3,3.4c2.9,3,4.4,7.4,3.7,11.4c0,0.1-0.1,0.1-0.1,0.1s-0.1,0-0.1-0.1c-0.6-3.9-2.4-7.3-5-9.9
			c-1.3-1.3-2.8-2.4-4.5-3.1c-1.7-0.7-3.5-1.3-5.4-1.5s-3.9,0.1-5.6,0.9c-1.8,0.8-3.2,2.1-4.4,3.5s-2.3,2.9-3.1,4.6
			c-0.8,1.7-1.4,3.5-1.8,5.4C50.8,65.2,50.7,65.2,50.6,65.1C50.6,65.2,50.6,65.1,50.6,65.1z"/>
	</g>
	<g>
		<path class="st2" d="M117.3,65.1c-0.7-4,0.8-8.4,3.9-11.2c1.6-1.4,3.5-2.3,5.3-3c1.9-0.7,3.8-1.2,5.9-1.4c2-0.2,4.2,0.1,6.1,0.8
			c2,0.7,3.8,1.9,5.3,3.4c2.9,3,4.4,7.4,3.7,11.4c0,0.1-0.1,0.1-0.1,0.1s-0.1,0-0.1-0.1c-0.6-3.9-2.4-7.3-5-9.9
			c-1.3-1.3-2.8-2.4-4.5-3.1c-1.7-0.7-3.5-1.3-5.4-1.5s-3.9,0.1-5.6,0.9c-1.8,0.8-3.2,2.1-4.4,3.5c-1.2,1.4-2.3,2.9-3.1,4.6
			c-0.8,1.7-1.4,3.5-1.8,5.4C117.5,65.2,117.5,65.2,117.3,65.1C117.4,65.2,117.3,65.1,117.3,65.1z"/>
	</g>
</g>
</svg>
