<svg xmlns="http://www.w3.org/2000/svg" viewBox="4258 15 29.999 30">
  <defs>
    <style>
      .cls-1 {
        fill: #ffe81c;
      }
    </style>
  </defs>
  <g id="Phone_icon" data-name="Phone icon" transform="translate(3524 -148)">
    <path id="Path_19" data-name="Path 19" class="cls-1" d="M22.808,19.462a2.1,2.1,0,0,0-3.178,0c-.743.737-1.486,1.473-2.216,2.222a.438.438,0,0,1-.612.112c-.481-.262-.993-.474-1.455-.762a23.046,23.046,0,0,1-5.556-5.057A13.163,13.163,0,0,1,7.8,12.788a.457.457,0,0,1,.112-.587c.743-.718,1.467-1.455,2.2-2.191A2.11,2.11,0,0,0,10.1,6.758C9.523,6.171,8.943,5.6,8.362,5.01c-.6-.6-1.192-1.2-1.8-1.8a2.115,2.115,0,0,0-3.178.006C2.638,3.955,1.92,4.71,1.158,5.434A3.618,3.618,0,0,0,.022,7.875a10.342,10.342,0,0,0,.8,4.451,27.047,27.047,0,0,0,4.8,8,29.708,29.708,0,0,0,9.839,7.7,14.229,14.229,0,0,0,5.45,1.586,3.994,3.994,0,0,0,3.427-1.3c.637-.712,1.355-1.361,2.029-2.041a2.124,2.124,0,0,0,.012-3.234Q24.6,21.238,22.808,19.462Z" transform="translate(734 163.384)"/>
    <path id="Path_20" data-name="Path 20" class="cls-1" d="M19.636,14.071l2.3-.393a10.34,10.34,0,0,0-8.746-8.484L12.869,7.51a7.991,7.991,0,0,1,6.767,6.561Z" transform="translate(735.98 163.799)"/>
    <path id="Path_21" data-name="Path 21" class="cls-1" d="M23.2,4.857A16.986,16.986,0,0,0,13.458,0l-.325,2.316A14.821,14.821,0,0,1,25.675,14.471l2.3-.393A17.11,17.11,0,0,0,23.2,4.857Z" transform="translate(736.021 163)"/>
  </g>
</svg>
