<svg xmlns="http://www.w3.org/2000/svg" viewBox="4991 3784 100 100">
  <defs>
    <style>
      .cls-1 {
        fill: #333;
      }

      .cls-2 {
        fill: #fff;
      }
    </style>
  </defs>
  <g id="User_icon" data-name="User icon" transform="translate(4406 3100)">
    <circle id="Ellipse_17" data-name="Ellipse 17" class="cls-1" cx="49" cy="49" r="49" transform="translate(586 685)"/>
    <g id="Icon" transform="translate(-75 -19.5)">
      <path id="user" class="cls-2" d="M100,50A50,50,0,1,0,16.229,86.833l-.047.042L17.8,88.242c.105.089.22.162.325.249.862.715,1.755,1.393,2.664,2.049.295.213.589.425.889.633q1.456,1,2.985,1.905c.222.131.445.258.669.385,1.115.635,2.253,1.233,3.418,1.782.085.04.173.076.258.116a49.55,49.55,0,0,0,12.093,3.827l.335.06c1.316.227,2.647.409,3.995.531.164.015.327.024.493.038,1.342.111,2.7.182,4.073.182s2.705-.071,4.04-.178c.169-.015.338-.024.507-.038q2-.183,3.96-.522c.113-.02.227-.04.34-.062a49.548,49.548,0,0,0,11.922-3.736c.138-.064.278-.124.416-.189q1.683-.791,3.293-1.7.4-.226.8-.46c.978-.576,1.94-1.178,2.875-1.818.336-.229.665-.471,1-.711.8-.575,1.582-1.167,2.344-1.787.169-.136.351-.255.516-.395l1.664-1.389-.049-.042A49.871,49.871,0,0,0,100,50ZM3.636,50A46.364,46.364,0,1,1,80.747,84.66a13.627,13.627,0,0,0-1.624-.976l-15.395-7.7a4.03,4.03,0,0,1-2.24-3.624V66.987c.356-.44.733-.938,1.122-1.485a37.051,37.051,0,0,0,4.756-9.315,6.6,6.6,0,0,0,3.791-5.98V43.762a6.615,6.615,0,0,0-1.613-4.307V30.969a14.663,14.663,0,0,0-3.424-10.662C62.771,16.482,57.347,14.545,50,14.545s-12.771,1.936-16.122,5.76a14.667,14.667,0,0,0-3.424,10.662v8.485a6.625,6.625,0,0,0-1.613,4.307v6.445a6.614,6.614,0,0,0,2.436,5.129A34.164,34.164,0,0,0,36.9,66.951v5.262a4.056,4.056,0,0,1-2.113,3.56L20.413,83.615a13.14,13.14,0,0,0-1.367.865A46.252,46.252,0,0,1,3.636,50Z" transform="translate(660 703.5)"/>
    </g>
  </g>
</svg>
